<svg xmlns="http://www.w3.org/2000/svg" width="21" height="21" viewBox="0 0 21 21" fill="currentColor">
  <path d="M8.07913 18.0052C7.55513 17.9768 7.06203 17.7483 6.70163 17.3668C6.27046 16.952 5.88569 16.4916 5.55413 15.9935C5.03619 15.2519 4.62679 14.4401 4.3383 13.5827C4.0118 12.6603 3.84004 11.6903 3.82996 10.7118C3.8046 9.75181 4.04234 8.80313 4.51746 7.96851C4.86544 7.36693 5.36178 6.86456 5.95913 6.50935C6.54987 6.15565 7.22397 5.96527 7.91246 5.95768C8.43148 5.98839 8.94151 6.10702 9.4208 6.30852C9.8033 6.47685 10.205 6.59518 10.6175 6.66018C11.0725 6.56486 11.5171 6.42531 11.945 6.24352C12.4513 6.04579 12.9875 5.93507 13.5308 5.91602C13.6033 5.91602 13.675 5.91602 13.7441 5.92435C14.9358 5.95852 16.0441 6.54352 16.7441 7.50768C16.1978 7.79987 15.7432 8.23784 15.4309 8.7729C15.1186 9.30795 14.9608 9.91914 14.975 10.5385C14.9695 11.0121 15.0645 11.4815 15.2537 11.9157C15.4429 12.35 15.7219 12.7392 16.0725 13.0577C16.3916 13.3616 16.7632 13.6053 17.1691 13.7768C17.0858 14.0268 16.99 14.2685 16.8883 14.5118C16.6575 15.0496 16.3727 15.5625 16.0383 16.0427C15.7221 16.5237 15.3541 16.9686 14.9408 17.3693C14.5638 17.7434 14.0613 17.9641 13.5308 17.9885C13.0811 17.9686 12.6393 17.8631 12.2291 17.6777C11.7868 17.485 11.3114 17.3795 10.8291 17.3668C10.3332 17.3766 9.84378 17.4816 9.38746 17.676C8.99333 17.8538 8.57225 17.9645 8.14163 18.0035L8.07913 18.0052ZM10.7041 5.91602C10.6416 5.91602 10.5791 5.91601 10.5166 5.90851C10.5035 5.80932 10.4965 5.70941 10.4958 5.60935C10.5231 4.77696 10.8484 3.98204 11.4125 3.36935C11.728 3.01723 12.1104 2.7314 12.5375 2.52852C12.9354 2.32364 13.3703 2.2004 13.8166 2.16602C13.8291 2.27518 13.8291 2.38185 13.8291 2.48352C13.8174 3.30282 13.5096 4.0902 12.9625 4.70018C12.6976 5.05537 12.3581 5.34826 11.968 5.5583C11.5779 5.76834 11.1465 5.89044 10.7041 5.91602Z" fill="currentColor"/>
</svg>